# Blender v2.93.5 OBJ File: ''
# www.blender.org
mtllib sphere.mtl
o Icosphere
v 0.000000 0.000000 -1.000000
v 0.723607 -0.525725 -0.447220
v -0.276388 -0.850649 -0.447220
v -0.894426 0.000000 -0.447216
v -0.276388 0.850649 -0.447220
v 0.723607 0.525725 -0.447219
v 0.276388 -0.850649 0.447220
v -0.723607 -0.525725 0.447219
v -0.723607 0.525725 0.447220
v 0.276388 0.850649 0.447220
v 0.894426 -0.000000 0.447216
v 0.000000 -0.000000 1.000000
v -0.232822 -0.716563 -0.657519
v -0.162456 -0.499995 -0.850654
v -0.077607 -0.238853 -0.967950
v 0.203181 -0.147618 -0.967950
v 0.425323 -0.309011 -0.850654
v 0.609547 -0.442856 -0.657519
v 0.531941 -0.681712 -0.502302
v 0.262869 -0.809012 -0.525738
v -0.029639 -0.864184 -0.502302
v 0.812729 0.295238 -0.502301
v 0.850648 0.000000 -0.525736
v 0.812729 -0.295238 -0.502301
v 0.203181 0.147618 -0.967950
v 0.425323 0.309011 -0.850654
v 0.609547 0.442856 -0.657519
v -0.753442 0.000000 -0.657515
v -0.525730 0.000000 -0.850652
v -0.251147 0.000000 -0.967949
v -0.483971 -0.716565 -0.502302
v -0.688189 -0.499997 -0.525736
v -0.831051 -0.238853 -0.502299
v -0.232822 0.716563 -0.657519
v -0.162456 0.499995 -0.850654
v -0.077607 0.238853 -0.967950
v -0.831051 0.238853 -0.502299
v -0.688189 0.499997 -0.525736
v -0.483971 0.716565 -0.502302
v -0.029639 0.864184 -0.502302
v 0.262869 0.809012 -0.525738
v 0.531941 0.681712 -0.502302
v 0.956626 -0.147618 0.251149
v 0.951058 -0.309013 -0.000000
v 0.860698 -0.442858 -0.251151
v 0.860698 0.442858 -0.251151
v 0.951058 0.309013 0.000000
v 0.956626 0.147618 0.251149
v 0.155215 -0.955422 0.251152
v 0.000000 -1.000000 -0.000000
v -0.155215 -0.955422 -0.251152
v 0.687159 -0.681715 -0.251152
v 0.587786 -0.809017 -0.000000
v 0.436007 -0.864188 0.251152
v -0.860698 -0.442858 0.251151
v -0.951058 -0.309013 -0.000000
v -0.956626 -0.147618 -0.251149
v -0.436007 -0.864188 -0.251152
v -0.587786 -0.809017 -0.000000
v -0.687159 -0.681715 0.251152
v -0.687159 0.681715 0.251152
v -0.587786 0.809017 0.000000
v -0.436007 0.864188 -0.251152
v -0.956626 0.147618 -0.251149
v -0.951058 0.309013 0.000000
v -0.860698 0.442858 0.251151
v 0.436007 0.864188 0.251152
v 0.587786 0.809017 0.000000
v 0.687159 0.681715 -0.251152
v -0.155215 0.955422 -0.251152
v 0.000000 1.000000 0.000000
v 0.155215 0.955422 0.251152
v 0.831051 -0.238853 0.502299
v 0.688189 -0.499997 0.525736
v 0.483971 -0.716565 0.502302
v 0.029639 -0.864184 0.502302
v -0.262869 -0.809012 0.525738
v -0.531941 -0.681712 0.502302
v -0.812729 -0.295238 0.502301
v -0.850648 -0.000000 0.525736
v -0.812729 0.295238 0.502301
v -0.531941 0.681712 0.502302
v -0.262869 0.809012 0.525738
v 0.029639 0.864184 0.502302
v 0.483971 0.716565 0.502302
v 0.688189 0.499997 0.525736
v 0.831051 0.238853 0.502299
v 0.077607 -0.238853 0.967950
v 0.162456 -0.499995 0.850654
v 0.232822 -0.716563 0.657519
v 0.753442 -0.000000 0.657515
v 0.525730 -0.000000 0.850652
v 0.251147 -0.000000 0.967949
v -0.203181 -0.147618 0.967950
v -0.425323 -0.309011 0.850654
v -0.609547 -0.442856 0.657519
v -0.203181 0.147618 0.967950
v -0.425323 0.309011 0.850654
v -0.609547 0.442856 0.657519
v 0.077607 0.238853 0.967950
v 0.162456 0.499995 0.850654
v 0.232822 0.716563 0.657519
v 0.361800 0.262863 0.894429
v 0.638194 0.262864 0.723610
v 0.447209 0.525728 0.723612
v -0.138197 0.425319 0.894430
v -0.052790 0.688185 0.723612
v -0.361804 0.587778 0.723612
v -0.447210 -0.000000 0.894429
v -0.670817 0.162457 0.723611
v -0.670817 -0.162457 0.723611
v -0.138197 -0.425320 0.894430
v -0.361804 -0.587779 0.723612
v -0.052790 -0.688185 0.723612
v 0.361800 -0.262863 0.894429
v 0.447209 -0.525728 0.723612
v 0.638194 -0.262864 0.723610
v 0.861804 0.425322 0.276396
v 0.809019 0.587782 0.000000
v 0.670821 0.688189 0.276397
v -0.138199 0.951055 0.276397
v -0.309016 0.951057 -0.000000
v -0.447215 0.850649 0.276397
v -0.947213 0.162458 0.276396
v -1.000000 -0.000000 0.000001
v -0.947213 -0.162458 0.276397
v -0.447216 -0.850648 0.276397
v -0.309017 -0.951056 -0.000001
v -0.138199 -0.951055 0.276397
v 0.670820 -0.688190 0.276396
v 0.809019 -0.587783 -0.000002
v 0.861804 -0.425323 0.276394
v 0.309017 0.951056 0.000000
v 0.447216 0.850648 -0.276398
v 0.138199 0.951055 -0.276397
v -0.809018 0.587783 0.000000
v -0.670819 0.688191 -0.276397
v -0.861803 0.425324 -0.276396
v -0.809018 -0.587783 -0.000000
v -0.861803 -0.425324 -0.276396
v -0.670819 -0.688191 -0.276397
v 0.309017 -0.951056 -0.000000
v 0.138199 -0.951055 -0.276398
v 0.447216 -0.850648 -0.276398
v 1.000000 0.000000 0.000000
v 0.947213 -0.162458 -0.276396
v 0.947213 0.162458 -0.276396
v 0.361803 0.587779 -0.723612
v 0.138197 0.425321 -0.894429
v 0.052789 0.688186 -0.723611
v -0.447211 0.525727 -0.723612
v -0.361801 0.262863 -0.894429
v -0.638195 0.262863 -0.723609
v -0.638195 -0.262864 -0.723609
v -0.361801 -0.262864 -0.894428
v -0.447211 -0.525729 -0.723610
v 0.670817 0.162457 -0.723611
v 0.670818 -0.162458 -0.723610
v 0.447211 -0.000001 -0.894428
v 0.052790 -0.688185 -0.723612
v 0.138199 -0.425321 -0.894429
v 0.361805 -0.587779 -0.723611
vt 1.000000 0.500000
vt 0.967070 0.452839
vt 1.012733 0.423229
vt 0.838105 0.323794
vt 0.881023 0.353965
vt 0.838105 0.404601
vt 0.000000 0.500000
vt 0.012733 0.423229
vt 0.040404 0.500000
vt 0.012733 0.576771
vt 1.012733 0.576771
vt 0.967070 0.547161
vt 0.795187 0.353965
vt 0.088102 0.176209
vt 0.009380 0.167835
vt 0.088102 0.095401
vt 0.176208 0.500000
vt 0.163474 0.423229
vt 0.209138 0.452839
vt 0.088102 0.823791
vt 0.122042 0.754287
vt 0.166825 0.832167
vt 0.838105 0.676206
vt 0.870440 0.738764
vt 0.805770 0.738766
vt 0.805770 0.261234
vt 0.166825 0.167833
vt 0.209138 0.547161
vt 0.088102 0.904599
vt 0.795187 0.646035
vt 0.588102 0.176209
vt 0.622042 0.245714
vt 0.554163 0.245714
vt 0.338105 0.323794
vt 0.370440 0.261236
vt 0.381023 0.353965
vt 0.338105 0.676206
vt 0.338105 0.595399
vt 0.381023 0.646035
vt 0.588102 0.823791
vt 0.509380 0.832165
vt 0.554163 0.754286
vt 0.676208 0.500000
vt 0.663474 0.576771
vt 0.635804 0.500000
vt 0.540404 0.500000
vt 0.512733 0.576771
vt 0.500000 0.500000
vt 0.588104 0.500000
vt 0.561176 0.584667
vt 0.615030 0.584667
vt 0.530033 0.666665
vt 0.588103 0.676207
vt 0.646173 0.666665
vt 0.622042 0.754286
vt 0.467070 0.547161
vt 0.475602 0.639838
vt 0.488410 0.741592
vt 0.426209 0.599998
vt 0.426209 0.699997
vt 0.426208 0.799997
vt 0.370440 0.738765
vt 0.467070 0.452839
vt 0.426209 0.500000
vt 0.381023 0.551942
vt 0.426209 0.400002
vt 0.381023 0.448058
vt 0.338105 0.500000
vt 0.338105 0.404601
vt 0.512733 0.423229
vt 0.475602 0.360162
vt 0.426209 0.300003
vt 0.530033 0.333335
vt 0.488410 0.258408
vt 0.426208 0.200003
vt 0.509380 0.167835
vt 0.561176 0.415333
vt 0.588103 0.323793
vt 0.615030 0.415333
vt 0.646173 0.333334
vt 0.663474 0.423228
vt 0.709138 0.547161
vt 0.750000 0.599999
vt 0.700606 0.639839
vt 0.750000 0.699999
vt 0.687797 0.741594
vt 0.750000 0.800000
vt 0.666825 0.832167
vt 0.588102 0.904599
vt 0.620169 1.000000
vt 0.426208 0.899999
vt 1.088102 0.904599
vt 0.250000 0.900000
vt 0.338105 0.823791
vt 0.250000 0.800000
vt 0.305770 0.738766
vt 0.295187 0.646035
vt 0.250000 0.599999
vt 0.295187 0.551942
vt 0.250000 0.500000
vt 0.295187 0.448058
vt 0.250000 0.400002
vt 0.295187 0.353965
vt 0.305770 0.261234
vt 0.250000 0.200000
vt 0.338105 0.176210
vt 0.250000 0.100000
vt 0.426208 0.100001
vt 0.173392 0.000000
vt 0.588102 0.095401
vt 0.666825 0.167833
vt 0.750000 0.200000
vt 0.687797 0.258406
vt 0.750000 0.300001
vt 0.700606 0.360160
vt 0.750000 0.400001
vt 0.709138 0.452839
vt 0.750000 0.900000
vt 0.838105 0.823790
vt 0.926208 0.899998
vt 0.926208 0.799997
vt 1.009380 0.832165
vt 0.009380 0.832165
vt 0.250000 0.699999
vt 0.187797 0.741595
vt 0.200606 0.639840
vt 0.146173 0.666666
vt 0.163474 0.576772
vt 0.250000 0.300001
vt 0.200606 0.360160
vt 0.187797 0.258405
vt 0.146173 0.333335
vt 0.122042 0.245714
vt 1.173392 0.000000
vt 0.750000 0.100000
vt 1.088102 0.095401
vt 0.926208 0.100002
vt 0.838105 0.176210
vt 1.009380 0.167835
vt 0.926208 0.200003
vt 0.870440 0.261236
vt 0.750000 0.500000
vt 0.795187 0.448058
vt 0.795187 0.551942
vt 0.838105 0.500000
vt 0.838105 0.595399
vt 0.881023 0.646035
vt 0.926209 0.599998
vt 0.926209 0.699998
vt 0.975602 0.639839
vt 0.988410 0.741593
vt 1.030033 0.666665
vt 1.054163 0.754286
vt 0.054163 0.754286
vt 0.030033 0.666665
vt 0.088103 0.676207
vt 0.061177 0.584667
vt 0.115031 0.584667
vt 0.088104 0.500000
vt 0.135804 0.500000
vt 0.115031 0.415333
vt 0.061177 0.415333
vt 0.088103 0.323793
vt 0.030033 0.333335
vt 0.054163 0.245714
vt 0.881023 0.551942
vt 0.881023 0.448058
vt 0.926209 0.500000
vt 0.926209 0.400002
vt 1.030033 0.333335
vt 0.988410 0.258408
vt 1.054163 0.245714
vt 0.975602 0.360161
vt 0.926208 0.300002
vn 0.0000 0.0000 -1.0000
vn 0.2109 -0.1533 -0.9654
vn -0.0806 -0.2480 -0.9654
vn 0.7236 -0.5257 -0.4472
vn 0.6042 -0.4390 -0.6650
vn 0.8152 -0.2857 -0.5038
vn -0.2608 0.0000 -0.9654
vn -0.0806 0.2480 -0.9654
vn 0.2109 0.1533 -0.9654
vn 0.8650 -0.4390 -0.2430
vn -0.2764 -0.8506 -0.4472
vn -0.0198 -0.8636 -0.5038
vn -0.1502 -0.9583 -0.2430
vn -0.8944 0.0000 -0.4472
vn -0.8274 -0.2480 -0.5038
vn -0.9578 -0.1533 -0.2430
vn -0.2764 0.8506 -0.4472
vn -0.4915 0.7103 -0.5038
vn -0.4417 0.8636 -0.2430
vn 0.7236 0.5257 -0.4472
vn 0.5236 0.6870 -0.5038
vn 0.6848 0.6870 -0.2430
vn 0.6848 -0.6870 -0.2430
vn -0.4417 -0.8636 -0.2430
vn -0.9578 0.1533 -0.2430
vn -0.1502 0.9583 -0.2430
vn 0.8650 0.4390 -0.2430
vn 0.2764 -0.8506 0.4472
vn 0.4915 -0.7103 0.5038
vn 0.2308 -0.7103 0.6650
vn -0.7236 -0.5257 0.4472
vn -0.5236 -0.6870 0.5038
vn -0.6042 -0.4390 0.6650
vn -0.7236 0.5257 0.4472
vn -0.8152 0.2857 0.5038
vn -0.6042 0.4390 0.6650
vn 0.2764 0.8506 0.4472
vn 0.0198 0.8636 0.5038
vn 0.2308 0.7103 0.6650
vn 0.8944 0.0000 0.4472
vn 0.8274 0.2480 0.5038
vn 0.7468 0.0000 0.6650
vn 0.2608 0.0000 0.9654
vn 0.0806 0.2480 0.9654
vn 0.0000 0.0000 1.0000
vn 0.5257 0.0000 0.8506
vn 0.3682 0.2675 0.8904
vn 0.6317 0.2675 0.7275
vn 0.1625 0.5000 0.8506
vn 0.4496 0.5181 0.7275
vn 0.6882 0.5000 0.5257
vn 0.4915 0.7103 0.5038
vn -0.2109 0.1533 0.9654
vn -0.1406 0.4328 0.8904
vn -0.0592 0.6835 0.7275
vn -0.4253 0.3090 0.8506
vn -0.3538 0.5877 0.7275
vn -0.2629 0.8090 0.5257
vn -0.5236 0.6870 0.5038
vn -0.2109 -0.1533 0.9654
vn -0.4551 0.0000 0.8904
vn -0.6683 0.1549 0.7275
vn -0.4253 -0.3090 0.8506
vn -0.6683 -0.1549 0.7275
vn -0.8506 0.0000 0.5257
vn -0.8152 -0.2857 0.5038
vn 0.0806 -0.2480 0.9654
vn -0.1406 -0.4328 0.8904
vn -0.3538 -0.5877 0.7275
vn 0.1625 -0.5000 0.8506
vn -0.0592 -0.6835 0.7275
vn -0.2629 -0.8090 0.5257
vn 0.0198 -0.8636 0.5038
vn 0.3682 -0.2675 0.8904
vn 0.4496 -0.5181 0.7275
vn 0.6317 -0.2675 0.7275
vn 0.6882 -0.5000 0.5257
vn 0.8274 -0.2480 0.5038
vn 0.9578 0.1533 0.2430
vn 0.9510 0.3090 0.0000
vn 0.8593 0.4328 0.2724
vn 0.8090 0.5878 0.0089
vn 0.6772 0.6835 0.2724
vn 0.5878 0.8090 0.0000
vn 0.4417 0.8636 0.2430
vn 0.1502 0.9583 0.2430
vn 0.0000 1.0000 0.0000
vn -0.1461 0.9510 0.2724
vn -0.3090 0.9510 0.0089
vn -0.4407 0.8553 0.2724
vn -0.5878 0.8090 0.0000
vn -0.6848 0.6870 0.2430
vn -0.8650 0.4390 0.2430
vn -0.9510 0.3090 0.0000
vn -0.9496 0.1549 0.2724
vn -0.9999 0.0000 0.0089
vn -0.9496 -0.1549 0.2724
vn -0.9510 -0.3090 0.0000
vn -0.8650 -0.4390 0.2430
vn -0.6848 -0.6870 0.2430
vn -0.5878 -0.8090 0.0000
vn -0.4407 -0.8553 0.2724
vn -0.3090 -0.9510 0.0089
vn -0.1461 -0.9510 0.2724
vn 0.0000 -1.0000 0.0000
vn 0.1502 -0.9583 0.2430
vn 0.4417 -0.8636 0.2430
vn 0.5878 -0.8090 0.0000
vn 0.6772 -0.6835 0.2724
vn 0.8090 -0.5878 0.0089
vn 0.8593 -0.4328 0.2724
vn 0.9510 -0.3090 0.0000
vn 0.9578 -0.1533 0.2430
vn 0.3090 0.9510 -0.0089
vn 0.4407 0.8553 -0.2724
vn 0.1461 0.9510 -0.2724
vn 0.2629 0.8090 -0.5257
vn -0.0198 0.8636 -0.5038
vn -0.8090 0.5878 -0.0089
vn -0.6772 0.6835 -0.2724
vn -0.8593 0.4328 -0.2724
vn -0.6882 0.5000 -0.5257
vn -0.8274 0.2480 -0.5038
vn -0.8090 -0.5878 -0.0089
vn -0.8593 -0.4328 -0.2724
vn -0.6772 -0.6835 -0.2724
vn -0.6882 -0.5000 -0.5257
vn -0.4915 -0.7103 -0.5038
vn 0.3090 -0.9510 -0.0089
vn 0.1461 -0.9510 -0.2724
vn 0.4407 -0.8553 -0.2724
vn 0.2629 -0.8090 -0.5257
vn 0.5236 -0.6870 -0.5038
vn 0.9999 0.0000 -0.0089
vn 0.9496 -0.1549 -0.2724
vn 0.9496 0.1549 -0.2724
vn 0.8506 0.0000 -0.5257
vn 0.8152 0.2857 -0.5038
vn 0.6042 0.4390 -0.6650
vn 0.4253 0.3090 -0.8506
vn 0.3538 0.5878 -0.7275
vn 0.1406 0.4328 -0.8904
vn 0.0592 0.6835 -0.7275
vn -0.1625 0.5000 -0.8506
vn -0.2308 0.7103 -0.6650
vn -0.4496 0.5181 -0.7275
vn -0.3682 0.2675 -0.8904
vn -0.6317 0.2675 -0.7275
vn -0.5257 0.0000 -0.8506
vn -0.7468 0.0000 -0.6650
vn -0.6317 -0.2675 -0.7275
vn -0.3682 -0.2675 -0.8904
vn -0.4496 -0.5181 -0.7275
vn -0.1625 -0.5000 -0.8506
vn -0.2308 -0.7103 -0.6650
vn 0.6683 0.1549 -0.7275
vn 0.6683 -0.1549 -0.7275
vn 0.4551 0.0000 -0.8904
vn 0.4253 -0.3090 -0.8506
vn 0.0592 -0.6835 -0.7275
vn 0.1406 -0.4328 -0.8904
vn 0.3538 -0.5878 -0.7275
usemtl Material.001
s 1
f 1/1/1 16/2/2 15/3/3
f 2/4/4 18/5/5 24/6/6
f 1/7/1 15/8/3 30/9/7
f 1/7/1 30/9/7 36/10/8
f 1/1/1 36/11/8 25/12/9
f 2/4/4 24/6/6 45/13/10
f 3/14/11 21/15/12 51/16/13
f 4/17/14 33/18/15 57/19/16
f 5/20/17 39/21/18 63/22/19
f 6/23/20 42/24/21 69/25/22
f 2/4/4 45/13/10 52/26/23
f 3/14/11 51/16/13 58/27/24
f 4/17/14 57/19/16 64/28/25
f 5/20/17 63/22/19 70/29/26
f 6/23/20 69/25/22 46/30/27
f 7/31/28 75/32/29 90/33/30
f 8/34/31 78/35/32 96/36/33
f 9/37/34 81/38/35 99/39/36
f 10/40/37 84/41/38 102/42/39
f 11/43/40 87/44/41 91/45/42
f 93/46/43 100/47/44 12/48/45
f 92/49/46 103/50/47 93/46/43
f 91/45/42 104/51/48 92/49/46
f 93/46/43 103/50/47 100/47/44
f 103/50/47 101/52/49 100/47/44
f 92/49/46 104/51/48 103/50/47
f 104/51/48 105/53/50 103/50/47
f 103/50/47 105/53/50 101/52/49
f 105/53/50 102/42/39 101/52/49
f 91/45/42 87/44/41 104/51/48
f 87/44/41 86/54/51 104/51/48
f 104/51/48 86/54/51 105/53/50
f 86/54/51 85/55/52 105/53/50
f 105/53/50 85/55/52 102/42/39
f 85/55/52 10/40/37 102/42/39
f 100/47/44 97/56/53 12/48/45
f 101/52/49 106/57/54 100/47/44
f 102/42/39 107/58/55 101/52/49
f 100/47/44 106/57/54 97/56/53
f 106/57/54 98/59/56 97/56/53
f 101/52/49 107/58/55 106/57/54
f 107/58/55 108/60/57 106/57/54
f 106/57/54 108/60/57 98/59/56
f 108/60/57 99/39/36 98/59/56
f 102/42/39 84/41/38 107/58/55
f 84/41/38 83/61/58 107/58/55
f 107/58/55 83/61/58 108/60/57
f 83/61/58 82/62/59 108/60/57
f 108/60/57 82/62/59 99/39/36
f 82/62/59 9/37/34 99/39/36
f 97/56/53 94/63/60 12/48/45
f 98/59/56 109/64/61 97/56/53
f 99/39/36 110/65/62 98/59/56
f 97/56/53 109/64/61 94/63/60
f 109/64/61 95/66/63 94/63/60
f 98/59/56 110/65/62 109/64/61
f 110/65/62 111/67/64 109/64/61
f 109/64/61 111/67/64 95/66/63
f 111/67/64 96/36/33 95/66/63
f 99/39/36 81/38/35 110/65/62
f 81/38/35 80/68/65 110/65/62
f 110/65/62 80/68/65 111/67/64
f 80/68/65 79/69/66 111/67/64
f 111/67/64 79/69/66 96/36/33
f 79/69/66 8/34/31 96/36/33
f 94/63/60 88/70/67 12/48/45
f 95/66/63 112/71/68 94/63/60
f 96/36/33 113/72/69 95/66/63
f 94/63/60 112/71/68 88/70/67
f 112/71/68 89/73/70 88/70/67
f 95/66/63 113/72/69 112/71/68
f 113/72/69 114/74/71 112/71/68
f 112/71/68 114/74/71 89/73/70
f 114/74/71 90/33/30 89/73/70
f 96/36/33 78/35/32 113/72/69
f 78/35/32 77/75/72 113/72/69
f 113/72/69 77/75/72 114/74/71
f 77/75/72 76/76/73 114/74/71
f 114/74/71 76/76/73 90/33/30
f 76/76/73 7/31/28 90/33/30
f 88/70/67 93/46/43 12/48/45
f 89/73/70 115/77/74 88/70/67
f 90/33/30 116/78/75 89/73/70
f 88/70/67 115/77/74 93/46/43
f 115/77/74 92/49/46 93/46/43
f 89/73/70 116/78/75 115/77/74
f 116/78/75 117/79/76 115/77/74
f 115/77/74 117/79/76 92/49/46
f 117/79/76 91/45/42 92/49/46
f 90/33/30 75/32/29 116/78/75
f 75/32/29 74/80/77 116/78/75
f 116/78/75 74/80/77 117/79/76
f 74/80/77 73/81/78 117/79/76
f 117/79/76 73/81/78 91/45/42
f 73/81/78 11/43/40 91/45/42
f 48/82/79 87/44/41 11/43/40
f 47/83/80 118/84/81 48/82/79
f 46/30/27 119/85/82 47/83/80
f 48/82/79 118/84/81 87/44/41
f 118/84/81 86/54/51 87/44/41
f 47/83/80 119/85/82 118/84/81
f 119/85/82 120/86/83 118/84/81
f 118/84/81 120/86/83 86/54/51
f 120/86/83 85/55/52 86/54/51
f 46/30/27 69/25/22 119/85/82
f 69/25/22 68/87/84 119/85/82
f 119/85/82 68/87/84 120/86/83
f 68/87/84 67/88/85 120/86/83
f 120/86/83 67/88/85 85/55/52
f 67/88/85 10/40/37 85/55/52
f 72/89/86 84/41/38 10/40/37
f 71/90/87 121/91/88 72/89/86
f 70/92/26 122/93/89 71/90/87
f 72/89/86 121/91/88 84/41/38
f 121/91/88 83/61/58 84/41/38
f 71/90/87 122/93/89 121/91/88
f 122/93/89 123/94/90 121/91/88
f 121/91/88 123/94/90 83/61/58
f 123/94/90 82/62/59 83/61/58
f 70/29/26 63/22/19 122/93/89
f 63/22/19 62/95/91 122/93/89
f 122/93/89 62/95/91 123/94/90
f 62/95/91 61/96/92 123/94/90
f 123/94/90 61/96/92 82/62/59
f 61/96/92 9/37/34 82/62/59
f 66/97/93 81/38/35 9/37/34
f 65/98/94 124/99/95 66/97/93
f 64/28/25 125/100/96 65/98/94
f 66/97/93 124/99/95 81/38/35
f 124/99/95 80/68/65 81/38/35
f 65/98/94 125/100/96 124/99/95
f 125/100/96 126/101/97 124/99/95
f 124/99/95 126/101/97 80/68/65
f 126/101/97 79/69/66 80/68/65
f 64/28/25 57/19/16 125/100/96
f 57/19/16 56/102/98 125/100/96
f 125/100/96 56/102/98 126/101/97
f 56/102/98 55/103/99 126/101/97
f 126/101/97 55/103/99 79/69/66
f 55/103/99 8/34/31 79/69/66
f 60/104/100 78/35/32 8/34/31
f 59/105/101 127/106/102 60/104/100
f 58/27/24 128/107/103 59/105/101
f 60/104/100 127/106/102 78/35/32
f 127/106/102 77/75/72 78/35/32
f 59/105/101 128/107/103 127/106/102
f 128/107/103 129/108/104 127/106/102
f 127/106/102 129/108/104 77/75/72
f 129/108/104 76/76/73 77/75/72
f 58/27/24 51/16/13 128/107/103
f 51/16/13 50/109/105 128/107/103
f 128/107/103 50/109/105 129/108/104
f 50/109/105 49/110/106 129/108/104
f 129/108/104 49/110/106 76/76/73
f 49/110/106 7/31/28 76/76/73
f 54/111/107 75/32/29 7/31/28
f 53/112/108 130/113/109 54/111/107
f 52/26/23 131/114/110 53/112/108
f 54/111/107 130/113/109 75/32/29
f 130/113/109 74/80/77 75/32/29
f 53/112/108 131/114/110 130/113/109
f 131/114/110 132/115/111 130/113/109
f 130/113/109 132/115/111 74/80/77
f 132/115/111 73/81/78 74/80/77
f 52/26/23 45/13/10 131/114/110
f 45/13/10 44/116/112 131/114/110
f 131/114/110 44/116/112 132/115/111
f 44/116/112 43/117/113 132/115/111
f 132/115/111 43/117/113 73/81/78
f 43/117/113 11/43/40 73/81/78
f 67/88/85 72/89/86 10/40/37
f 68/87/84 133/118/114 67/88/85
f 69/25/22 134/119/115 68/87/84
f 67/88/85 133/118/114 72/89/86
f 133/118/114 71/90/87 72/89/86
f 68/87/84 134/119/115 133/118/114
f 134/119/115 135/120/116 133/118/114
f 133/118/114 135/120/116 71/90/87
f 135/120/116 70/92/26 71/90/87
f 69/25/22 42/24/21 134/119/115
f 42/24/21 41/121/117 134/119/115
f 134/119/115 41/121/117 135/120/116
f 41/121/117 40/122/118 135/120/116
f 135/120/116 40/122/118 70/92/26
f 40/123/118 5/20/17 70/29/26
f 61/96/92 66/97/93 9/37/34
f 62/95/91 136/124/119 61/96/92
f 63/22/19 137/125/120 62/95/91
f 61/96/92 136/124/119 66/97/93
f 136/124/119 65/98/94 66/97/93
f 62/95/91 137/125/120 136/124/119
f 137/125/120 138/126/121 136/124/119
f 136/124/119 138/126/121 65/98/94
f 138/126/121 64/28/25 65/98/94
f 63/22/19 39/21/18 137/125/120
f 39/21/18 38/127/122 137/125/120
f 137/125/120 38/127/122 138/126/121
f 38/127/122 37/128/123 138/126/121
f 138/126/121 37/128/123 64/28/25
f 37/128/123 4/17/14 64/28/25
f 55/103/99 60/104/100 8/34/31
f 56/102/98 139/129/124 55/103/99
f 57/19/16 140/130/125 56/102/98
f 55/103/99 139/129/124 60/104/100
f 139/129/124 59/105/101 60/104/100
f 56/102/98 140/130/125 139/129/124
f 140/130/125 141/131/126 139/129/124
f 139/129/124 141/131/126 59/105/101
f 141/131/126 58/27/24 59/105/101
f 57/19/16 33/18/15 140/130/125
f 33/18/15 32/132/127 140/130/125
f 140/130/125 32/132/127 141/131/126
f 32/132/127 31/133/128 141/131/126
f 141/131/126 31/133/128 58/27/24
f 31/133/128 3/14/11 58/27/24
f 49/110/106 54/111/107 7/31/28
f 50/134/105 142/135/129 49/110/106
f 51/136/13 143/137/130 50/134/105
f 49/110/106 142/135/129 54/111/107
f 142/135/129 53/112/108 54/111/107
f 50/134/105 143/137/130 142/135/129
f 143/137/130 144/138/131 142/135/129
f 142/135/129 144/138/131 53/112/108
f 144/138/131 52/26/23 53/112/108
f 51/136/13 21/139/12 143/137/130
f 21/139/12 20/140/132 143/137/130
f 143/137/130 20/140/132 144/138/131
f 20/140/132 19/141/133 144/138/131
f 144/138/131 19/141/133 52/26/23
f 19/141/133 2/4/4 52/26/23
f 43/117/113 48/82/79 11/43/40
f 44/116/112 145/142/134 43/117/113
f 45/13/10 146/143/135 44/116/112
f 43/117/113 145/142/134 48/82/79
f 145/142/134 47/83/80 48/82/79
f 44/116/112 146/143/135 145/142/134
f 146/143/135 147/144/136 145/142/134
f 145/142/134 147/144/136 47/83/80
f 147/144/136 46/30/27 47/83/80
f 45/13/10 24/6/6 146/143/135
f 24/6/6 23/145/137 146/143/135
f 146/143/135 23/145/137 147/144/136
f 23/145/137 22/146/138 147/144/136
f 147/144/136 22/146/138 46/30/27
f 22/146/138 6/23/20 46/30/27
f 27/147/139 42/24/21 6/23/20
f 26/148/140 148/149/141 27/147/139
f 25/12/9 149/150/142 26/148/140
f 27/147/139 148/149/141 42/24/21
f 148/149/141 41/121/117 42/24/21
f 26/148/140 149/150/142 148/149/141
f 149/150/142 150/151/143 148/149/141
f 148/149/141 150/151/143 41/121/117
f 150/151/143 40/122/118 41/121/117
f 25/12/9 36/11/8 149/150/142
f 36/11/8 35/152/144 149/150/142
f 149/150/142 35/152/144 150/151/143
f 35/152/144 34/153/145 150/151/143
f 150/151/143 34/153/145 40/122/118
f 34/154/145 5/20/17 40/123/118
f 34/154/145 39/21/18 5/20/17
f 35/155/144 151/156/146 34/154/145
f 36/10/8 152/157/147 35/155/144
f 34/154/145 151/156/146 39/21/18
f 151/156/146 38/127/122 39/21/18
f 35/155/144 152/157/147 151/156/146
f 152/157/147 153/158/148 151/156/146
f 151/156/146 153/158/148 38/127/122
f 153/158/148 37/128/123 38/127/122
f 36/10/8 30/9/7 152/157/147
f 30/9/7 29/159/149 152/157/147
f 152/157/147 29/159/149 153/158/148
f 29/159/149 28/160/150 153/158/148
f 153/158/148 28/160/150 37/128/123
f 28/160/150 4/17/14 37/128/123
f 28/160/150 33/18/15 4/17/14
f 29/159/149 154/161/151 28/160/150
f 30/9/7 155/162/152 29/159/149
f 28/160/150 154/161/151 33/18/15
f 154/161/151 32/132/127 33/18/15
f 29/159/149 155/162/152 154/161/151
f 155/162/152 156/163/153 154/161/151
f 154/161/151 156/163/153 32/132/127
f 156/163/153 31/133/128 32/132/127
f 30/9/7 15/8/3 155/162/152
f 15/8/3 14/164/154 155/162/152
f 155/162/152 14/164/154 156/163/153
f 14/164/154 13/165/155 156/163/153
f 156/163/153 13/165/155 31/133/128
f 13/165/155 3/14/11 31/133/128
f 22/146/138 27/147/139 6/23/20
f 23/145/137 157/166/156 22/146/138
f 24/6/6 158/167/157 23/145/137
f 22/146/138 157/166/156 27/147/139
f 157/166/156 26/148/140 27/147/139
f 23/145/137 158/167/157 157/166/156
f 158/167/157 159/168/158 157/166/156
f 157/166/156 159/168/158 26/148/140
f 159/168/158 25/12/9 26/148/140
f 24/6/6 18/5/5 158/167/157
f 18/5/5 17/169/159 158/167/157
f 158/167/157 17/169/159 159/168/158
f 17/169/159 16/2/2 159/168/158
f 159/168/158 16/2/2 25/12/9
f 16/2/2 1/1/1 25/12/9
f 13/165/155 21/15/12 3/14/11
f 14/170/154 160/171/160 13/172/155
f 15/3/3 161/173/161 14/170/154
f 13/172/155 160/171/160 21/139/12
f 160/171/160 20/140/132 21/139/12
f 14/170/154 161/173/161 160/171/160
f 161/173/161 162/174/162 160/171/160
f 160/171/160 162/174/162 20/140/132
f 162/174/162 19/141/133 20/140/132
f 15/3/3 16/2/2 161/173/161
f 16/2/2 17/169/159 161/173/161
f 161/173/161 17/169/159 162/174/162
f 17/169/159 18/5/5 162/174/162
f 162/174/162 18/5/5 19/141/133
f 18/5/5 2/4/4 19/141/133
